<?xml version="1.0" encoding="UTF-8" standalone="no"?>
<!DOCTYPE svg PUBLIC "-//W3C//DTD SVG 1.1//EN" "http://www.w3.org/Graphics/SVG/1.1/DTD/svg11.dtd">
<svg version="1.1" xmlns="http://www.w3.org/2000/svg" xmlns:xlink="http://www.w3.org/1999/xlink" preserveAspectRatio="xMidYMid meet" viewBox="0 0 640 640" width="640" height="640"><defs><path d="M212.81 470.64L211.49 460.7L202.88 454.74L192.28 454.74L184.34 461.36L175.07 469.97L155.2 477.26L149.9 468.65L149.24 458.05L153.21 448.78L158.51 439.51L166.46 432.22L175.73 428.25L185.66 426.26L196.26 426.93L206.19 429.58L216.13 432.22L224.74 437.52L234.01 442.16L242.62 447.46" id="fGnfKfTWj"></path><path d="M410 168.12L409.82 167.47L409.62 166.82L409.39 166.18L409.14 165.56L408.87 164.95L408.57 164.35L408.26 163.76L407.92 163.19L407.56 162.63L407.17 162.09L406.77 161.56L406.35 161.05L405.91 160.56L405.45 160.08L404.98 159.62L404.48 159.18L403.97 158.76L403.44 158.36L402.9 157.98L402.35 157.62L401.77 157.28L401.19 156.96L400.59 156.66L399.98 156.39L399.35 156.14L398.71 155.91L398.07 155.71L397.41 155.53L396.74 155.38L396.06 155.26L395.38 155.16L394.68 155.09L393.98 155.05L393.27 155.03L390.85 155.03L388.27 155.03L385.53 155.03L382.64 155.03L379.62 155.03L376.47 155.03L373.2 155.03L369.82 155.03L366.33 155.03L362.75 155.03L359.08 155.03L355.34 155.03L351.53 155.03L347.65 155.03L343.73 155.03L339.76 155.03L335.75 155.03L331.72 155.03L327.67 155.03L323.62 155.03L319.56 155.03L315.51 155.03L311.48 155.03L307.47 155.03L303.5 155.03L299.57 155.03L295.69 155.03L291.87 155.03L288.12 155.03L284.45 155.03L280.86 155.03L277.36 155.03L273.97 155.03L270.69 155.03L267.53 155.03L264.49 155.03L261.6 155.03L258.85 155.03L256.25 155.03L253.82 155.03L253.15 155.05L252.49 155.09L251.83 155.15L251.19 155.25L250.55 155.36L249.92 155.5L249.3 155.67L248.7 155.86L248.1 156.07L247.51 156.31L246.93 156.56L246.37 156.84L245.82 157.14L245.28 157.46L244.76 157.8L244.25 158.16L243.75 158.54L243.27 158.93L242.81 159.35L242.36 159.78L241.93 160.23L241.52 160.69L241.12 161.17L240.74 161.66L240.38 162.17L240.04 162.7L239.72 163.24L239.42 163.79L239.15 164.35L238.89 164.93L238.66 165.51L238.44 166.11L238.25 166.72L238.09 167.34L237.95 167.97L237.83 168.6L237.74 169.25L237.67 169.9L237.63 170.57L237.62 171.23L237.62 175.94L237.62 181.02L237.62 186.45L237.62 192.22L237.62 198.31L237.62 204.69L237.62 211.35L237.62 218.27L237.62 225.42L237.62 232.79L237.62 240.36L237.62 248.1L237.62 256.01L237.62 264.05L237.62 272.21L237.62 280.47L237.62 288.81L237.62 297.21L237.62 305.64L237.62 314.1L237.62 322.56L237.62 331L237.62 339.4L237.62 347.75L237.62 356.01L237.62 364.18L237.62 372.23L237.62 380.14L237.62 387.89L237.62 395.47L237.62 402.85L237.62 410.01L237.62 416.94L237.62 423.62L237.62 430.01L237.62 436.12L237.62 441.9L237.62 447.36L237.62 452.46L237.62 457.18L237.63 457.79L237.67 458.4L237.73 458.99L237.81 459.58L237.92 460.16L238.05 460.74L238.2 461.3L238.37 461.86L238.57 462.41L238.78 462.94L239.02 463.47L239.27 463.98L239.54 464.49L239.84 464.98L240.15 465.46L240.47 465.92L240.82 466.37L241.18 466.81L241.56 467.24L241.95 467.65L242.36 468.04L242.79 468.42L243.23 468.78L243.68 469.13L244.14 469.45L244.62 469.77L245.11 470.06L245.62 470.33L246.13 470.59L246.66 470.82L247.19 471.03L247.74 471.23L248.3 471.4L248.86 471.55L249.44 471.68L250.02 471.79L250.61 471.87L251.2 471.93L251.81 471.97L252.42 471.98L254.87 471.98L257.49 471.98L260.27 471.98L263.2 471.98L266.26 471.98L269.46 471.98L272.77 471.98L276.2 471.98L279.73 471.98L283.36 471.98L287.07 471.98L290.86 471.98L294.72 471.98L298.65 471.98L302.62 471.98L306.63 471.98L310.68 471.98L314.75 471.98L318.85 471.98L322.94 471.98L327.04 471.98L331.13 471.98L335.2 471.98L339.24 471.98L343.25 471.98L347.21 471.98L351.12 471.98L354.96 471.98L358.74 471.98L362.43 471.98L366.04 471.98L369.55 471.98L372.95 471.98L376.24 471.98L379.41 471.98L382.44 471.98L385.34 471.98L388.08 471.98L390.67 471.98L393.09 471.98L393.8 471.97L394.51 471.93L395.22 471.85L395.91 471.76L396.59 471.63L397.27 471.48L397.93 471.3L398.59 471.1L399.23 470.87L399.86 470.61L400.48 470.34L401.09 470.04L401.68 469.72L402.26 469.37L402.82 469.01L403.37 468.62L403.9 468.22L404.42 467.79L404.91 467.34L405.4 466.88L405.86 466.4L406.3 465.9L406.73 465.38L407.14 464.85L407.52 464.3L407.89 463.74L408.23 463.16L408.55 462.57L408.85 461.96L409.13 461.34L409.38 460.71L409.61 460.07L409.81 459.41L409.99 458.75L410.14 458.07L410.27 457.39L410.37 456.69L410.44 455.99L410.48 455.28L410.5 454.56L410.5 451.77L410.5 448.77L410.5 445.57L410.5 442.17L410.5 438.57L410.5 434.76L410.5 430.76L410.5 426.55L410.5 422.14L410.5 417.52L410.5 412.71L410.5 407.69L410.5 402.47L410.5 397.05L410.5 391.43L410.5 385.6L410.5 379.57L410.5 373.34L410.5 366.91L410.5 360.28L410.5 353.44L410.5 346.41L410.5 339.17L410.5 331.72L410.5 324.08L410.5 316.23L410.5 308.19L410.5 299.94L410.5 291.48L410.5 282.83L410.5 273.97L410.5 264.91L410.5 255.65L410.5 246.19L410.5 236.53L410.5 226.66L410.5 216.59L410.5 206.32L410.5 195.85L410.5 185.17L410.5 184.66L410.5 184.16L410.5 183.67L410.5 183.19L410.5 182.71L410.5 182.25L410.5 181.8L410.5 181.35L410.5 180.92L410.5 180.5L410.5 180.08L410.5 179.68L410.5 179.28L410.5 178.9L410.5 178.52L410.5 178.16L410.5 177.8L410.5 177.45L410.5 177.11L410.5 176.79L410.5 176.47L410.5 176.16L410.5 175.86L410.5 175.57L410.5 175.29L410.5 175.02L410.5 174.76L410.5 174.51L410.5 174.27L410.5 174.04L410.5 173.82L410.5 173.61L410.5 173.41L410.5 173.22L410.5 173.03L410.5 172.86L410.5 172.7L410.5 172.54L410.5 172.4L410.5 172.26L410.48 171.55L410.44 170.85L410.37 170.16L410.27 169.47L410.15 168.79L410.15 168.79L410 168.12Z" id="f1yxeVjDtj"></path><path d="M398.07 461.5L398.07 284.36L249.74 284.36L249.74 461.5L398.07 461.5Z" id="b9vvzWUeCo"></path><path d="M410.5 172.26C410.5 162.75 402.79 155.03 393.27 155.03C362.14 155.03 285.15 155.03 253.82 155.03C244.87 155.03 237.62 162.28 237.62 171.23C237.62 231.38 237.62 396.75 237.62 457.18C237.62 465.35 244.25 471.98 252.42 471.98C284.03 471.98 361.99 471.98 393.09 471.98C402.7 471.98 410.5 464.18 410.5 454.56C410.5 418.64 410.5 328.85 410.5 185.17C410.5 178.29 410.5 173.99 410.5 172.26Z" id="c1mKe0FEuG"></path><path d="M398.07 461.5L398.07 284.36L249.74 284.36L249.74 461.5L398.07 461.5Z" id="a3OWtWE6Tv"></path><path d="M398.07 279.18L398.07 166.08L249.74 166.08L249.74 279.18L398.07 279.18Z" id="bBumTCKyK"></path><path d="M398.07 279.18L398.07 166.08L249.74 166.08L249.74 279.18L398.07 279.18Z" id="g37Aw18Erp"></path><path d="M370.26 339.14L370.26 384.1L370.26 384.1L370.26 339.14L370.26 339.14Z" id="a7kopbfnUK"></path><path d="M375.96 313.93L375.96 368.43L375.96 384.79L375.96 432.48" id="a3yMvRuq79"></path><path d="M376.21 197.67L376.21 215.39L376.21 231.74L376.21 248.09" id="eritdNUBr"></path><path d="M210.72 459.98C215.58 459.47 219.87 463.16 220.08 468.04C220.12 468.97 220.22 471.28 220.39 474.99L205.5 476.55C205 471.77 204.68 468.78 204.56 467.59C204.16 463.78 206.92 460.38 210.72 459.98C212.51 459.79 209.34 460.12 210.72 459.98Z" id="a22EIgThl7"></path><path d="M210 469.93L210 480.48" id="b154pio1Vn"></path><path d="M216.64 469.33L216.64 479.88" id="c4I6tdTWyI"></path><path d="M345.08 339.14C351.64 339.14 356.96 344.46 356.96 351.02C356.96 351.02 356.96 348.65 356.96 351.02C356.96 362.83 352.61 373.62 345.44 381.88C336.85 391.77 324.2 398.02 310.09 398.02C288.52 398.02 287.61 398.02 307.34 398.02C290.78 398.02 277.15 384.99 276.4 368.45C276.13 362.59 276.17 363.4 275.77 354.75C275.39 346.25 282.18 339.14 290.69 339.14C303.94 339.14 331.07 339.14 345.08 339.14Z" id="gSWu2HvZI"></path><mask id="maskc765Bbfcz" x="275.76" y="339.14" width="81.2" height="58.87" maskUnits="userSpaceOnUse"><rect x="275.76" y="339.14" width="81.2" height="58.87" fill="white"></rect><use xlink:href="#gSWu2HvZI" opacity="1" fill="black"></use></mask><path d="M300.93 208.09C307.72 208.09 313.22 213.6 313.22 220.39C313.22 225.93 313.22 232.09 313.22 238.09C313.22 243.62 308.74 248.09 303.22 248.09C297.22 248.09 289.22 248.09 283.22 248.09C277.7 248.09 273.22 243.62 273.22 238.09C273.22 232.09 273.22 238.26 273.22 235.8C273.22 220.5 285.63 208.09 300.93 208.09C303.39 208.09 295.39 208.09 300.93 208.09Z" id="aBNRGW3A9"></path><path d="M344.18 208.09C359.48 208.09 371.88 220.5 371.88 235.8C371.88 238.26 371.88 232.09 371.88 238.09C371.88 243.62 367.4 248.09 361.88 248.09C355.88 248.09 350.5 248.09 345.15 248.09C337.82 248.09 331.88 242.15 331.88 234.82C331.88 229.47 331.88 225.93 331.88 220.39C331.88 213.6 337.38 208.09 344.18 208.09C349.72 208.09 341.72 208.09 344.18 208.09Z" id="b3DxULXnI7"></path><path d="M300.24 221.63C305.55 221.63 309.86 225.94 309.86 231.26C309.86 235.67 309.86 240.71 309.86 245.48C309.86 249.81 306.36 253.31 302.04 253.31C297.34 253.31 291.08 253.31 286.38 253.31C282.06 253.31 278.56 249.81 278.56 245.48C278.56 240.71 278.56 245.31 278.56 243.32C278.56 231.34 288.27 221.63 300.24 221.63C302.17 221.63 295.9 221.63 300.24 221.63Z" id="aeFpbB4uJ"></path><path d="M346.03 220.7C358.14 220.7 367.97 230.53 367.97 242.64C367.97 244.59 367.97 239.71 367.97 244.46C367.97 248.83 364.42 252.38 360.05 252.38C355.3 252.38 351.04 252.38 346.8 252.38C341 252.38 336.29 247.67 336.29 241.87C336.29 237.63 336.29 234.83 336.29 230.44C336.29 225.06 340.65 220.7 346.03 220.7C350.42 220.7 344.08 220.7 346.03 220.7Z" id="b1zLrEZRf6"></path><path d="M297.92 233.31C301.95 233.31 305.22 236.58 305.22 240.6C305.22 242.1 305.22 239.3 305.22 240.8C305.22 244.83 301.95 248.09 297.92 248.09C296.47 248.09 299.38 248.09 297.92 248.09C293.9 248.09 290.63 244.83 290.63 240.8C290.63 239.3 290.63 242.1 290.63 240.6C290.63 236.58 293.9 233.31 297.92 233.31C299.38 233.31 296.47 233.31 297.92 233.31Z" id="a1CzJtGSk"></path><path d="M349.66 233.31C353.69 233.31 356.96 236.58 356.96 240.6C356.96 242.1 356.96 239.3 356.96 240.8C356.96 244.83 353.69 248.09 349.66 248.09C348.21 248.09 351.12 248.09 349.66 248.09C345.64 248.09 342.37 244.83 342.37 240.8C342.37 239.3 342.37 242.1 342.37 240.6C342.37 236.58 345.64 233.31 349.66 233.31C351.12 233.31 348.21 233.31 349.66 233.31Z" id="d8P8hhY5E"></path><path d="M303.22 236.79C303.22 238.71 300.88 240.27 298 240.27C295.12 240.27 292.78 238.71 292.78 236.79C292.78 234.87 295.12 233.31 298 233.31C300.88 233.31 303.22 234.87 303.22 236.79Z" id="a4B0mLUaj0"></path><path d="M354.88 236.79C354.88 238.71 352.54 240.27 349.66 240.27C346.78 240.27 344.45 238.71 344.45 236.79C344.45 234.87 346.78 233.31 349.66 233.31C352.54 233.31 354.88 234.87 354.88 236.79Z" id="b1QL3b0BOg"></path><path d="M342.22 340.47C345.93 340.33 349.05 343.22 349.19 346.94C349.35 350.97 349.55 356.35 349.7 360.39C349.84 364.1 346.94 367.23 343.23 367.36C338.24 367.55 330.01 367.86 325.02 368.05C321.31 368.19 318.18 365.29 318.04 361.58C317.89 357.54 317.69 352.16 317.54 348.13C317.4 344.41 320.3 341.29 324.01 341.15C329 340.96 337.23 340.65 342.22 340.47Z" id="a47TzWD80e"></path><path d="M312.33 340.8C316.04 340.8 319.06 343.81 319.06 347.53C319.06 351.57 319.06 356.95 319.06 360.99C319.06 364.7 316.04 367.72 312.33 367.72C307.34 367.72 299.1 367.72 294.11 367.72C290.39 367.72 287.38 364.7 287.38 360.99C287.38 356.95 287.38 351.57 287.38 347.53C287.38 343.81 290.39 340.8 294.11 340.8C299.1 340.8 307.34 340.8 312.33 340.8Z" id="c2jYGEWTZq"></path><path d="" id="h3hbznODWg"></path></defs><g><g><g><g><use xlink:href="#fGnfKfTWj" opacity="1" fill-opacity="0" stroke="#000000" stroke-width="3" stroke-opacity="1"></use></g></g><g><use xlink:href="#f1yxeVjDtj" opacity="1" fill="#684d9e" fill-opacity="1"></use><g><use xlink:href="#f1yxeVjDtj" opacity="1" fill-opacity="0" stroke="#000000" stroke-width="1" stroke-opacity="0"></use></g></g><g><use xlink:href="#b9vvzWUeCo" opacity="1" fill="#ffffff" fill-opacity="1"></use><g><use xlink:href="#b9vvzWUeCo" opacity="1" fill-opacity="0" stroke="#000000" stroke-width="1" stroke-opacity="0"></use></g></g><g><use xlink:href="#c1mKe0FEuG" opacity="1" fill="#000000" fill-opacity="0"></use><g><use xlink:href="#c1mKe0FEuG" opacity="1" fill-opacity="0" stroke="#20c0e5" stroke-width="6" stroke-opacity="1"></use></g></g><g><use xlink:href="#a3OWtWE6Tv" opacity="1" fill="#000000" fill-opacity="0"></use><g><use xlink:href="#a3OWtWE6Tv" opacity="1" fill-opacity="0" stroke="#7239a9" stroke-width="1" stroke-opacity="1"></use></g></g><g><use xlink:href="#bBumTCKyK" opacity="1" fill="#ffffff" fill-opacity="1"></use><g><use xlink:href="#bBumTCKyK" opacity="1" fill-opacity="0" stroke="#000000" stroke-width="1" stroke-opacity="0"></use></g></g><g><use xlink:href="#g37Aw18Erp" opacity="1" fill="#000000" fill-opacity="0"></use><g><use xlink:href="#g37Aw18Erp" opacity="1" fill-opacity="0" stroke="#a544e1" stroke-width="1" stroke-opacity="1"></use></g></g><g><use xlink:href="#a7kopbfnUK" opacity="1" fill="#6bbd35" fill-opacity="1"></use><g><use xlink:href="#a7kopbfnUK" opacity="1" fill-opacity="0" stroke="#000000" stroke-width="1" stroke-opacity="0"></use></g></g><g><use xlink:href="#a3yMvRuq79" opacity="1" fill="#000000" fill-opacity="0"></use><g><use xlink:href="#a3yMvRuq79" opacity="1" fill-opacity="0" stroke="#6639a9" stroke-width="4" stroke-opacity="1"></use></g></g><g><use xlink:href="#eritdNUBr" opacity="1" fill="#000000" fill-opacity="0"></use><g><use xlink:href="#eritdNUBr" opacity="1" fill-opacity="0" stroke="#6639a9" stroke-width="4" stroke-opacity="1"></use></g></g><g><use xlink:href="#a22EIgThl7" opacity="1" fill="#000000" fill-opacity="1"></use></g><g><g><use xlink:href="#b154pio1Vn" opacity="1" fill-opacity="0" stroke="#000000" stroke-width="2" stroke-opacity="1"></use></g></g><g><g><use xlink:href="#c4I6tdTWyI" opacity="1" fill-opacity="0" stroke="#000000" stroke-width="2" stroke-opacity="1"></use></g></g><g><use xlink:href="#gSWu2HvZI" opacity="1" fill="#000000" fill-opacity="1"></use><g mask="url(#maskc765Bbfcz)"><use xlink:href="#gSWu2HvZI" opacity="1" fill-opacity="0" stroke="#000000" stroke-width="0" stroke-opacity="1"></use></g></g><g><use xlink:href="#aBNRGW3A9" opacity="1" fill="#000000" fill-opacity="1"></use></g><g><use xlink:href="#b3DxULXnI7" opacity="1" fill="#000000" fill-opacity="1"></use></g><g><use xlink:href="#aeFpbB4uJ" opacity="1" fill="#ffffff" fill-opacity="1"></use></g><g><use xlink:href="#b1zLrEZRf6" opacity="1" fill="#ffffff" fill-opacity="1"></use></g><g><use xlink:href="#a1CzJtGSk" opacity="1" fill="#000000" fill-opacity="1"></use></g><g><use xlink:href="#d8P8hhY5E" opacity="1" fill="#000000" fill-opacity="1"></use></g><g><use xlink:href="#a4B0mLUaj0" opacity="1" fill="#ffffff" fill-opacity="1"></use></g><g><use xlink:href="#b1QL3b0BOg" opacity="1" fill="#ffffff" fill-opacity="1"></use></g><g><use xlink:href="#a47TzWD80e" opacity="1" fill="#f2f29b" fill-opacity="1"></use><g><use xlink:href="#a47TzWD80e" opacity="1" fill-opacity="0" stroke="#000000" stroke-width="2" stroke-opacity="1"></use></g></g><g><use xlink:href="#c2jYGEWTZq" opacity="1" fill="#f8f0a6" fill-opacity="1"></use><g><use xlink:href="#c2jYGEWTZq" opacity="1" fill-opacity="0" stroke="#000000" stroke-width="2" stroke-opacity="1"></use></g></g><g><g><use xlink:href="#h3hbznODWg" opacity="1" fill-opacity="0" stroke="#000000" stroke-width="3" stroke-opacity="1"></use></g></g></g></g></svg>