<svg version="1.1" xmlns="http://www.w3.org/2000/svg" xmlns:xlink="http://www.w3.org/1999/xlink" preserveAspectRatio="xMidYMid meet" viewBox="0 0 640 640" width="640" height="640"><defs><path d="M339.49 131.92C339.49 125.04 339.49 120.74 339.49 119.01C339.49 109.5 331.78 101.78 322.26 101.78C291.13 101.78 214.14 101.78 182.81 101.78C173.86 101.78 166.61 109.03 166.61 117.98C166.61 178.13 166.61 343.5 166.61 403.93C166.61 412.1 173.24 418.73 181.41 418.73C213.02 418.73 290.98 418.73 322.08 418.73C331.69 418.73 339.49 410.93 339.49 401.31C339.49 365.39 339.49 275.6 339.49 131.92Z" id="e17SgegecG"></path><path d="M178.73 408.25L327.06 408.25L327.06 231.11L178.73 231.11L178.73 408.25Z" id="b4xACvDPj"></path><path d="M178.73 225.93L327.06 225.93L327.06 112.83L178.73 112.83L178.73 225.93Z" id="b1D5l9JWLa"></path><path d="M299.25 285.89L299.25 285.89L299.25 330.85L299.25 330.85L299.25 285.89Z" id="c1A8i6IO7e"></path><path d="M304.95 260.68L304.95 315.18L304.95 331.54L304.95 379.23" id="a2mEtbZfQA"></path><path d="M305.2 144.42L305.2 162.14L305.2 178.49L305.2 194.84" id="dfcxCuVH3"></path></defs><g><g><g><use xlink:href="#e17SgegecG" opacity="1" fill="#684d9e" fill-opacity="1"></use><g><use xlink:href="#e17SgegecG" opacity="1" fill-opacity="0" stroke="#20c0e5" stroke-width="6" stroke-opacity="1"></use></g></g><g><use xlink:href="#b4xACvDPj" opacity="1" fill="#ffffff" fill-opacity="1"></use><g><use xlink:href="#b4xACvDPj" opacity="1" fill-opacity="0" stroke="#7239a9" stroke-width="1" stroke-opacity="1"></use></g><g><filter id="shadow3761601" x="149.73" y="202.11" width="211.33" height="241.14" filterUnits="userSpaceOnUse" primitiveUnits="userSpaceOnUse"><feFlood></feFlood><feComposite in2="SourceAlpha" operator="out"></feComposite><feGaussianBlur stdDeviation="3"></feGaussianBlur><feOffset dx="5" dy="6" result="afterOffset"></feOffset><feFlood flood-color="#cab3e4" flood-opacity="0.8"></feFlood><feComposite in2="afterOffset" operator="in"></feComposite><feMorphology operator="dilate" radius="0"></feMorphology><feComposite in2="SourceAlpha" operator="in"></feComposite></filter><path d="M178.73 408.25L327.06 408.25L327.06 231.11L178.73 231.11L178.73 408.25Z" id="diCDiT6Mc" fill="white" fill-opacity="1" filter="url(#shadow3761601)"></path></g></g><g><use xlink:href="#b1D5l9JWLa" opacity="1" fill="#ffffff" fill-opacity="1"></use><g><use xlink:href="#b1D5l9JWLa" opacity="1" fill-opacity="0" stroke="#a544e1" stroke-width="1" stroke-opacity="1"></use></g><g><filter id="shadow7183696" x="145.73" y="79.83" width="218.33" height="183.1" filterUnits="userSpaceOnUse" primitiveUnits="userSpaceOnUse"><feFlood></feFlood><feComposite in2="SourceAlpha" operator="out"></feComposite><feGaussianBlur stdDeviation="3.32"></feGaussianBlur><feOffset dx="4" dy="4" result="afterOffset"></feOffset><feFlood flood-color="#bfa3d4" flood-opacity="1"></feFlood><feComposite in2="afterOffset" operator="in"></feComposite><feMorphology operator="dilate" radius="2"></feMorphology><feComposite in2="SourceAlpha" operator="in"></feComposite></filter><path d="M178.73 225.93L327.06 225.93L327.06 112.83L178.73 112.83L178.73 225.93Z" id="h1tdUrPlsM" fill="white" fill-opacity="1" filter="url(#shadow7183696)"></path></g></g><g><use xlink:href="#c1A8i6IO7e" opacity="1" fill="#6bbd35" fill-opacity="1"></use></g><g><g><filter id="shadow14433650" x="298.95" y="254.68" width="12" height="130.55" filterUnits="userSpaceOnUse" primitiveUnits="userSpaceOnUse"><feFlood></feFlood><feComposite in2="SourceAlpha" operator="in"></feComposite><feGaussianBlur stdDeviation="0"></feGaussianBlur><feOffset dx="0" dy="0" result="afterOffset"></feOffset><feFlood flood-color="#000000" flood-opacity="0.5"></feFlood><feComposite in2="afterOffset" operator="in"></feComposite><feMorphology operator="dilate" radius="1"></feMorphology><feComposite in2="SourceAlpha" operator="out"></feComposite></filter><path d="M304.95 260.68L304.95 315.18L304.95 331.54L304.95 379.23" id="g2RwcB4jKB" fill="none" stroke="white" filter="url(#shadow14433650)"></path></g><g><use xlink:href="#a2mEtbZfQA" opacity="1" fill-opacity="0" stroke="#6639a9" stroke-width="4" stroke-opacity="1"></use></g></g><g><g><use xlink:href="#dfcxCuVH3" opacity="1" fill-opacity="0" stroke="#6639a9" stroke-width="4" stroke-opacity="1"></use></g></g></g></g></svg>