<?xml version="1.0" encoding="UTF-8" standalone="no"?>
<!DOCTYPE svg PUBLIC "-//W3C//DTD SVG 1.1//EN" "http://www.w3.org/Graphics/SVG/1.1/DTD/svg11.dtd">
<svg version="1.1" xmlns="http://www.w3.org/2000/svg" xmlns:xlink="http://www.w3.org/1999/xlink" preserveAspectRatio="xMidYMid meet" viewBox="0 0 640 640" width="640" height="640"><defs><path d="M605.64 99.81C602.38 81.33 584.75 68.96 566.24 72.23C505.74 82.89 356.09 109.28 295.2 120.02C277.8 123.09 266.19 139.66 269.26 157.06C289.88 273.97 346.55 595.4 367.26 712.86C370.06 728.74 385.22 739.35 401.1 736.55C462.54 725.72 614.07 699 674.52 688.34C693.2 685.05 705.69 667.21 702.39 648.51C690.08 578.7 659.31 404.17 610.06 124.9C607.71 111.53 606.23 103.17 605.64 99.81Z" id="a8eYK8lkFZ"></path><path d="M605.64 99.81C602.38 81.33 584.75 68.96 566.24 72.23C505.74 82.89 356.09 109.28 295.2 120.02C284.15 121.97 275.44 129.36 271.34 138.95C268.98 144.47 268.14 150.71 269.26 157.06C289.88 273.97 346.55 595.4 367.26 712.86C370.06 728.74 385.22 739.35 401.1 736.55C462.54 725.72 614.07 699 674.52 688.34C693.2 685.05 705.69 667.21 702.39 648.51C690.08 578.7 659.31 404.17 610.06 124.9C607.71 111.53 606.23 103.17 605.64 99.81Z" id="dFLLSyKzp"></path><path d="M680.61 666.26L619.9 321.96L331.59 372.79L392.3 717.1L680.61 666.26Z" id="b5n2wXAAPE"></path><path d="M680.61 666.26L619.9 321.96L331.59 372.79L392.3 717.1L680.61 666.26Z" id="cK1HCBbjP"></path><path d="M618.12 311.89L579.36 92.06L291.05 142.89L329.82 362.73L618.12 311.89Z" id="i1DYy5zd9w"></path><path d="M618.12 311.89L579.36 92.06L291.05 142.89L329.82 362.73L618.12 311.89Z" id="b13sBp7xSz"></path><path d="M584.62 437.96L600.03 525.35L600.03 525.35L584.62 437.96L584.62 437.96Z" id="c3CnlDJNX"></path><path d="M587.06 387.01L605.74 492.94L611.34 524.74L627.69 617.43" id="a1MxvPZsWh"></path><path d="M547.7 160.95L553.77 195.39L559.38 227.17L564.98 258.95" id="a4ggkcKYgq"></path><path d="M370.26 384.1L370.26 384.1L370.26 339.14L370.26 339.14L370.26 384.1Z" id="a3YcXUEFdO"></path><path d="M370.26 384.1L370.26 384.1L370.26 339.14L370.26 339.14L370.26 384.1Z" id="b5cKma8et"></path><path d="M375.96 313.93L375.96 368.43L375.96 384.79L375.96 432.48" id="c31ojtirW"></path><path d="M376.21 197.67L376.21 215.39L376.21 231.74L376.21 248.09" id="a3kVNQwIz"></path><path d="M543.76 382.97C552.75 381.39 561.32 387.39 562.9 396.38C567.84 424.39 570.01 436.67 572.5 450.81C580.84 498.1 549.27 543.18 501.99 551.52C484.02 554.69 512.62 549.65 493.87 552.95C448.74 560.91 405.71 530.78 397.75 485.65C395.12 470.73 392.39 455.22 387.44 427.18C385.87 418.27 391.82 409.76 400.74 408.19C432.6 402.57 511.93 388.58 543.76 382.97Z" id="ajTrOhJxi"></path><path d="M478.19 405.7C479.36 412.35 480.92 421.2 482.1 427.84C483.17 433.94 479.09 439.79 473 440.86C464.81 442.3 451.29 444.69 443.1 446.13C437 447.21 431.18 443.11 430.11 437.01C428.93 430.36 427.37 421.52 426.2 414.87C425.12 408.75 429.19 402.93 435.3 401.85C443.48 400.41 457.01 398.03 465.2 396.58C471.28 395.51 477.11 399.59 478.19 405.7Z" id="b2if2cJHYU"></path><path d="M459.37 234.28C456.49 234.28 454.15 232.72 454.15 230.8C454.15 228.88 456.49 227.32 459.37 227.32C462.25 227.32 464.59 228.88 464.59 230.8C464.59 232.72 462.25 234.28 459.37 234.28Z" id="g8HT0lY7j"></path><path d="M529.94 397.92C531.04 404.71 532.48 413.78 533.57 420.6C534.57 426.85 530.49 432.74 524.48 433.7C516.39 435.02 503.05 437.19 494.96 438.51C488.95 439.49 483.25 435.2 482.25 428.94C481.16 422.13 479.72 413.06 478.63 406.26C477.63 399.99 481.71 394.12 487.72 393.14C495.81 391.82 509.15 389.65 517.24 388.35C523.25 387.37 528.94 391.64 529.94 397.92Z" id="bqqvFPVA5"></path><path d="M531.25 527.43C531.25 541.35 509.07 552.64 481.74 552.64C454.42 552.64 432.23 541.35 432.23 527.43C432.23 513.52 454.42 502.22 481.74 502.22C509.07 502.22 531.25 513.52 531.25 527.43Z" id="i3cbZcLUUg"></path><path d="M537.73 196.85C539.94 199.52 541.59 202.51 542.57 205.78C548.03 223.94 530.74 243.88 503.99 250.28C477.24 256.67 451.09 247.11 445.63 228.95C440.17 210.78 456.05 174.84 482.8 168.45C504.74 163.2 527.68 184.69 537.73 196.85Z" id="f1H8TCRwjm"></path><path d="M457.04 230.52C450.83 215.3 463.18 197.29 484.6 190.34C506.03 183.38 528.46 190.09 534.67 205.31C540.88 220.53 528.53 238.54 507.11 245.49C485.69 252.45 463.25 245.74 457.04 230.52Z" id="b47VO4EB2"></path><path d="M520.99 224.12C520.99 229.5 520.99 219.46 520.99 224.84C520.99 239.28 509.83 250.96 496.08 250.96C491.13 250.96 501.06 250.96 496.08 250.96C482.36 250.96 471.2 239.28 471.2 224.84C471.2 219.46 471.2 229.5 471.2 224.12C471.2 209.72 482.36 198 496.08 198C501.06 198 491.13 198 496.08 198C509.83 198 520.99 209.72 520.99 224.12Z" id="h1nUqm9D2c"></path><path d="M496.08 194.8C486.76 194.8 479.21 199.64 479.21 205.59C479.21 211.53 486.76 216.37 496.08 216.37C505.4 216.37 512.97 211.53 512.97 205.59C512.97 199.64 505.4 194.8 496.08 194.8Z" id="a7XdQObE0d"></path><path d="M435.73 217.7C437.94 220.37 439.59 223.36 440.57 226.63C446.03 244.79 428.74 264.73 401.99 271.13C375.24 277.52 349.09 267.96 343.63 249.8C338.17 231.63 354.05 195.69 380.8 189.3C402.74 184.05 425.68 205.54 435.73 217.7Z" id="a1tNfc1tHY"></path><path d="M355.04 251.36C348.83 236.14 361.18 218.14 382.6 211.19C404.03 204.23 426.46 210.94 432.67 226.16C438.88 241.38 426.53 259.38 405.11 266.34C383.69 273.29 361.25 266.58 355.04 251.36Z" id="bssIK2h3Z"></path><path d="M416.96 244.52C416.96 249.9 416.96 239.86 416.96 245.24C416.96 259.68 405.81 271.36 392.05 271.36C387.1 271.36 397.03 271.36 392.05 271.36C378.33 271.36 367.17 259.68 367.17 245.24C367.17 239.86 367.17 249.9 367.17 244.52C367.17 230.12 378.33 218.4 392.05 218.4C397.03 218.4 387.1 218.4 392.05 218.4C405.81 218.4 416.96 230.12 416.96 244.52Z" id="bC1L7QNqh"></path><path d="M392.05 215.2C382.73 215.2 375.19 220.04 375.19 225.99C375.19 231.93 382.73 236.77 392.05 236.77C401.38 236.77 408.95 231.93 408.95 225.99C408.95 220.04 401.38 215.2 392.05 215.2Z" id="b2mUUAiWLx"></path></defs><g><g><g><use xlink:href="#a8eYK8lkFZ" opacity="1" fill="#684d9e" fill-opacity="1"></use><g><use xlink:href="#a8eYK8lkFZ" opacity="1" fill-opacity="0" stroke="#000000" stroke-width="1" stroke-opacity="0"></use></g></g><g><g><filter id="shadow14681785" x="158.77" y="-38.3" width="659.15" height="886.3" filterUnits="userSpaceOnUse" primitiveUnits="userSpaceOnUse"><feFlood></feFlood><feComposite in2="SourceAlpha" operator="in"></feComposite><feGaussianBlur stdDeviation="7.07"></feGaussianBlur><feOffset dx="5" dy="1" result="afterOffset"></feOffset><feFlood flood-color="#43108f" flood-opacity="0.5"></feFlood><feComposite in2="afterOffset" operator="in"></feComposite><feMorphology operator="dilate" radius="0"></feMorphology><feComposite in2="SourceAlpha" operator="out"></feComposite></filter><path d="M605.64 99.81C602.38 81.33 584.75 68.96 566.24 72.23C505.74 82.89 356.09 109.28 295.2 120.02C284.15 121.97 275.44 129.36 271.34 138.95C268.98 144.47 268.14 150.71 269.26 157.06C289.88 273.97 346.55 595.4 367.26 712.86C370.06 728.74 385.22 739.35 401.1 736.55C462.54 725.72 614.07 699 674.52 688.34C693.2 685.05 705.69 667.21 702.39 648.51C690.08 578.7 659.31 404.17 610.06 124.9C607.71 111.53 606.23 103.17 605.64 99.81Z" id="d9q1VfFGdw" fill="white" fill-opacity="1" filter="url(#shadow14681785)"></path></g><use xlink:href="#dFLLSyKzp" opacity="1" fill="#000000" fill-opacity="0"></use><g><use xlink:href="#dFLLSyKzp" opacity="1" fill-opacity="0" stroke="#20c0e5" stroke-width="6" stroke-opacity="1"></use></g><g><filter id="shadow13874762" x="253.77" y="56.7" width="471.15" height="696.3" filterUnits="userSpaceOnUse" primitiveUnits="userSpaceOnUse"><feFlood></feFlood><feComposite in2="SourceAlpha" operator="out"></feComposite><feGaussianBlur stdDeviation="1"></feGaussianBlur><feOffset dx="-7" dy="1" result="afterOffset"></feOffset><feFlood flood-color="#2c8f99" flood-opacity="0.5"></feFlood><feComposite in2="afterOffset" operator="in"></feComposite><feMorphology operator="dilate" radius="1"></feMorphology><feComposite in2="SourceAlpha" operator="in"></feComposite></filter><path d="M605.64 99.81C602.38 81.33 584.75 68.96 566.24 72.23C505.74 82.89 356.09 109.28 295.2 120.02C284.15 121.97 275.44 129.36 271.34 138.95C268.98 144.47 268.14 150.71 269.26 157.06C289.88 273.97 346.55 595.4 367.26 712.86C370.06 728.74 385.22 739.35 401.1 736.55C462.54 725.72 614.07 699 674.52 688.34C693.2 685.05 705.69 667.21 702.39 648.51C690.08 578.7 659.31 404.17 610.06 124.9C607.71 111.53 606.23 103.17 605.64 99.81Z" id="aoBqiOjGU" fill="white" fill-opacity="1" filter="url(#shadow13874762)"></path></g></g><g><use xlink:href="#b5n2wXAAPE" opacity="1" fill="#ffffff" fill-opacity="1"></use><g><use xlink:href="#b5n2wXAAPE" opacity="1" fill-opacity="0" stroke="#000000" stroke-width="1" stroke-opacity="0"></use></g></g><g><g><filter id="shadow5466713" x="291.59" y="281.96" width="440.02" height="480.14" filterUnits="userSpaceOnUse" primitiveUnits="userSpaceOnUse"><feFlood></feFlood><feComposite in2="SourceAlpha" operator="in"></feComposite><feGaussianBlur stdDeviation="3.46"></feGaussianBlur><feOffset dx="11" dy="-5" result="afterOffset"></feOffset><feFlood flood-color="#3c057a" flood-opacity="0.5"></feFlood><feComposite in2="afterOffset" operator="in"></feComposite><feMorphology operator="dilate" radius="0"></feMorphology><feComposite in2="SourceAlpha" operator="out"></feComposite></filter><path d="M680.61 666.26L619.9 321.96L331.59 372.79L392.3 717.1L680.61 666.26Z" id="b2sZoQNor" fill="white" fill-opacity="1" filter="url(#shadow5466713)"></path></g><use xlink:href="#cK1HCBbjP" opacity="1" fill="#000000" fill-opacity="0"></use><g><use xlink:href="#cK1HCBbjP" opacity="1" fill-opacity="0" stroke="#7239a9" stroke-width="1" stroke-opacity="1"></use></g><g><filter id="shadow1749757" x="306.59" y="296.96" width="404.02" height="446.14" filterUnits="userSpaceOnUse" primitiveUnits="userSpaceOnUse"><feFlood></feFlood><feComposite in2="SourceAlpha" operator="out"></feComposite><feGaussianBlur stdDeviation="2.65"></feGaussianBlur><feOffset dx="5" dy="1" result="afterOffset"></feOffset><feFlood flood-color="#5b1ca1" flood-opacity="0.5"></feFlood><feComposite in2="afterOffset" operator="in"></feComposite><feMorphology operator="dilate" radius="1"></feMorphology><feComposite in2="SourceAlpha" operator="in"></feComposite></filter><path d="M680.61 666.26L619.9 321.96L331.59 372.79L392.3 717.1L680.61 666.26Z" id="a10gdR3cXC" fill="white" fill-opacity="1" filter="url(#shadow1749757)"></path></g></g><g><use xlink:href="#i1DYy5zd9w" opacity="1" fill="#ffffff" fill-opacity="1"></use><g><use xlink:href="#i1DYy5zd9w" opacity="1" fill-opacity="0" stroke="#000000" stroke-width="1" stroke-opacity="0"></use></g></g><g><g><filter id="shadow3697351" x="252.05" y="53.06" width="412.07" height="350.67" filterUnits="userSpaceOnUse" primitiveUnits="userSpaceOnUse"><feFlood></feFlood><feComposite in2="SourceAlpha" operator="in"></feComposite><feGaussianBlur stdDeviation="3.16"></feGaussianBlur><feOffset dx="7" dy="2" result="afterOffset"></feOffset><feFlood flood-color="#4d12b4" flood-opacity="0.49"></feFlood><feComposite in2="afterOffset" operator="in"></feComposite><feMorphology operator="dilate" radius="7"></feMorphology><feComposite in2="SourceAlpha" operator="out"></feComposite></filter><path d="M618.12 311.89L579.36 92.06L291.05 142.89L329.82 362.73L618.12 311.89Z" id="a1glqhtP3y" fill="white" fill-opacity="1" filter="url(#shadow3697351)"></path></g><use xlink:href="#b13sBp7xSz" opacity="1" fill="#000000" fill-opacity="0"></use><g><use xlink:href="#b13sBp7xSz" opacity="1" fill-opacity="0" stroke="#a544e1" stroke-width="1" stroke-opacity="1"></use></g><g><filter id="shadow14913882" x="229.05" y="30.06" width="453.07" height="395.67" filterUnits="userSpaceOnUse" primitiveUnits="userSpaceOnUse"><feFlood></feFlood><feComposite in2="SourceAlpha" operator="out"></feComposite><feGaussianBlur stdDeviation="5.2"></feGaussianBlur><feOffset dx="2" dy="1" result="afterOffset"></feOffset><feFlood flood-color="#4c0bbd" flood-opacity="0.5"></feFlood><feComposite in2="afterOffset" operator="in"></feComposite><feMorphology operator="dilate" radius="1"></feMorphology><feComposite in2="SourceAlpha" operator="in"></feComposite></filter><path d="M618.12 311.89L579.36 92.06L291.05 142.89L329.82 362.73L618.12 311.89Z" id="dALX61ixe" fill="white" fill-opacity="1" filter="url(#shadow14913882)"></path></g></g><g><use xlink:href="#c3CnlDJNX" opacity="1" fill="#6bbd35" fill-opacity="1"></use><g><use xlink:href="#c3CnlDJNX" opacity="1" fill-opacity="0" stroke="#000000" stroke-width="1" stroke-opacity="0"></use></g></g><g><use xlink:href="#a1MxvPZsWh" opacity="1" fill="#000000" fill-opacity="0"></use><g><use xlink:href="#a1MxvPZsWh" opacity="1" fill-opacity="0" stroke="#6639a9" stroke-width="4" stroke-opacity="1"></use></g></g><g><use xlink:href="#a4ggkcKYgq" opacity="1" fill="#000000" fill-opacity="0"></use><g><use xlink:href="#a4ggkcKYgq" opacity="1" fill-opacity="0" stroke="#6639a9" stroke-width="4" stroke-opacity="1"></use></g></g><g><use xlink:href="#a3YcXUEFdO" opacity="1" fill="#6bbd35" fill-opacity="1"></use><g><use xlink:href="#a3YcXUEFdO" opacity="1" fill-opacity="0" stroke="#000000" stroke-width="1" stroke-opacity="0"></use></g></g><g><use xlink:href="#b5cKma8et" opacity="1" fill="#000000" fill-opacity="0"></use><g><use xlink:href="#b5cKma8et" opacity="1" fill-opacity="0" stroke="#000000" stroke-width="1" stroke-opacity="0"></use></g></g><g><use xlink:href="#c31ojtirW" opacity="1" fill="#000000" fill-opacity="0"></use><g><use xlink:href="#c31ojtirW" opacity="1" fill-opacity="0" stroke="#000000" stroke-width="1" stroke-opacity="0"></use></g></g><g><use xlink:href="#a3kVNQwIz" opacity="1" fill="#000000" fill-opacity="0"></use><g><use xlink:href="#a3kVNQwIz" opacity="1" fill-opacity="0" stroke="#000000" stroke-width="1" stroke-opacity="0"></use></g></g><g><g><filter id="shadow8814381" x="377.19" y="372.72" width="207.65" height="192.51" filterUnits="userSpaceOnUse" primitiveUnits="userSpaceOnUse"><feFlood></feFlood><feComposite in2="SourceAlpha" operator="in"></feComposite><feGaussianBlur stdDeviation="1.41"></feGaussianBlur><feOffset dx="1" dy="1" result="afterOffset"></feOffset><feFlood flood-color="#000000" flood-opacity="0.5"></feFlood><feComposite in2="afterOffset" operator="in"></feComposite><feMorphology operator="dilate" radius="0"></feMorphology><feComposite in2="SourceAlpha" operator="out"></feComposite></filter><path d="M543.76 382.97C552.75 381.39 561.32 387.39 562.9 396.38C567.84 424.39 570.01 436.67 572.5 450.81C580.84 498.1 549.27 543.18 501.99 551.52C484.02 554.69 512.62 549.65 493.87 552.95C448.74 560.91 405.71 530.78 397.75 485.65C395.12 470.73 392.39 455.22 387.44 427.18C385.87 418.27 391.82 409.76 400.74 408.19C432.6 402.57 511.93 388.58 543.76 382.97Z" id="a9j2Jhsaca" fill="white" fill-opacity="1" filter="url(#shadow8814381)"></path></g><use xlink:href="#ajTrOhJxi" opacity="1" fill="#0a0b0b" fill-opacity="1"></use></g><g><use xlink:href="#b2if2cJHYU" opacity="1" fill="#f3f1d5" fill-opacity="1"></use><g><use xlink:href="#b2if2cJHYU" opacity="1" fill-opacity="0" stroke="#000000" stroke-width="1" stroke-opacity="0"></use></g><g><filter id="shadow5403264" x="399.03" y="369.41" width="110.24" height="106.89" filterUnits="userSpaceOnUse" primitiveUnits="userSpaceOnUse"><feFlood></feFlood><feComposite in2="SourceAlpha" operator="out"></feComposite><feGaussianBlur stdDeviation="3"></feGaussianBlur><feOffset dx="0" dy="3" result="afterOffset"></feOffset><feFlood flood-color="#000000" flood-opacity="0.5"></feFlood><feComposite in2="afterOffset" operator="in"></feComposite><feMorphology operator="dilate" radius="1"></feMorphology><feComposite in2="SourceAlpha" operator="in"></feComposite></filter><path d="M478.19 405.7C479.36 412.35 480.92 421.2 482.1 427.84C483.17 433.94 479.09 439.79 473 440.86C464.81 442.3 451.29 444.69 443.1 446.13C437 447.21 431.18 443.11 430.11 437.01C428.93 430.36 427.37 421.52 426.2 414.87C425.12 408.75 429.19 402.93 435.3 401.85C443.48 400.41 457.01 398.03 465.2 396.58C471.28 395.51 477.11 399.59 478.19 405.7Z" id="aNSPFti6b" fill="white" fill-opacity="1" filter="url(#shadow5403264)"></path></g></g><g><use xlink:href="#g8HT0lY7j" opacity="1" fill="#ffffff" fill-opacity="1"></use><g><use xlink:href="#g8HT0lY7j" opacity="1" fill-opacity="0" stroke="#000000" stroke-width="1" stroke-opacity="0"></use></g></g><g><use xlink:href="#bqqvFPVA5" opacity="1" fill="#f9f9b7" fill-opacity="1"></use><g><use xlink:href="#bqqvFPVA5" opacity="1" fill-opacity="0" stroke="#000000" stroke-width="1" stroke-opacity="0"></use></g><g><filter id="shadow12448580" x="451.48" y="361.21" width="109.23" height="107.44" filterUnits="userSpaceOnUse" primitiveUnits="userSpaceOnUse"><feFlood></feFlood><feComposite in2="SourceAlpha" operator="out"></feComposite><feGaussianBlur stdDeviation="3"></feGaussianBlur><feOffset dx="0" dy="3" result="afterOffset"></feOffset><feFlood flood-color="#000000" flood-opacity="0.5"></feFlood><feComposite in2="afterOffset" operator="in"></feComposite><feMorphology operator="dilate" radius="1"></feMorphology><feComposite in2="SourceAlpha" operator="in"></feComposite></filter><path d="M529.94 397.92C531.04 404.71 532.48 413.78 533.57 420.6C534.57 426.85 530.49 432.74 524.48 433.7C516.39 435.02 503.05 437.19 494.96 438.51C488.95 439.49 483.25 435.2 482.25 428.94C481.16 422.13 479.72 413.06 478.63 406.26C477.63 399.99 481.71 394.12 487.72 393.14C495.81 391.82 509.15 389.65 517.24 388.35C523.25 387.37 528.94 391.64 529.94 397.92Z" id="b2YX24tuJN" fill="white" fill-opacity="1" filter="url(#shadow12448580)"></path></g></g><g><g><filter id="shadow16727445" x="423.23" y="493.22" width="117.02" height="69.42" filterUnits="userSpaceOnUse" primitiveUnits="userSpaceOnUse"><feFlood></feFlood><feComposite in2="SourceAlpha" operator="in"></feComposite><feGaussianBlur stdDeviation="1"></feGaussianBlur><feOffset dx="0" dy="1" result="afterOffset"></feOffset><feFlood flood-color="#000000" flood-opacity="0.5"></feFlood><feComposite in2="afterOffset" operator="in"></feComposite><feMorphology operator="dilate" radius="1"></feMorphology><feComposite in2="SourceAlpha" operator="out"></feComposite></filter><path d="M531.25 527.43C531.25 541.35 509.07 552.64 481.74 552.64C454.42 552.64 432.23 541.35 432.23 527.43C432.23 513.52 454.42 502.22 481.74 502.22C509.07 502.22 531.25 513.52 531.25 527.43Z" id="b1bTsburDv" fill="white" fill-opacity="1" filter="url(#shadow16727445)"></path></g><use xlink:href="#i3cbZcLUUg" opacity="1" fill="#fc7b7b" fill-opacity="1"></use><g><use xlink:href="#i3cbZcLUUg" opacity="1" fill-opacity="0" stroke="#000000" stroke-width="0" stroke-opacity="0"></use></g><g><filter id="shadow14765543" x="389.23" y="459.22" width="185.02" height="143.42" filterUnits="userSpaceOnUse" primitiveUnits="userSpaceOnUse"><feFlood></feFlood><feComposite in2="SourceAlpha" operator="out"></feComposite><feGaussianBlur stdDeviation="3.87"></feGaussianBlur><feOffset dx="0" dy="-7" result="afterOffset"></feOffset><feFlood flood-color="#050404" flood-opacity="0.8"></feFlood><feComposite in2="afterOffset" operator="in"></feComposite><feMorphology operator="dilate" radius="1"></feMorphology><feComposite in2="SourceAlpha" operator="in"></feComposite></filter><path d="M531.25 527.43C531.25 541.35 509.07 552.64 481.74 552.64C454.42 552.64 432.23 541.35 432.23 527.43C432.23 513.52 454.42 502.22 481.74 502.22C509.07 502.22 531.25 513.52 531.25 527.43Z" id="h1bHxsANj7" fill="white" fill-opacity="1" filter="url(#shadow14765543)"></path></g></g><g><g><g><filter id="shadow2000583" x="416.56" y="139.64" width="159.02" height="141.63" filterUnits="userSpaceOnUse" primitiveUnits="userSpaceOnUse"><feFlood></feFlood><feComposite in2="SourceAlpha" operator="in"></feComposite><feGaussianBlur stdDeviation="3"></feGaussianBlur><feOffset dx="4" dy="1" result="afterOffset"></feOffset><feFlood flood-color="#000000" flood-opacity="0.5"></feFlood><feComposite in2="afterOffset" operator="in"></feComposite><feMorphology operator="dilate" radius="1"></feMorphology><feComposite in2="SourceAlpha" operator="out"></feComposite></filter><path d="M537.73 196.85C539.94 199.52 541.59 202.51 542.57 205.78C548.03 223.94 530.74 243.88 503.99 250.28C477.24 256.67 451.09 247.11 445.63 228.95C440.17 210.78 456.05 174.84 482.8 168.45C504.74 163.2 527.68 184.69 537.73 196.85Z" id="b2eibb1M58" fill="white" fill-opacity="1" filter="url(#shadow2000583)"></path></g><use xlink:href="#f1H8TCRwjm" opacity="1" fill="#0b0b0a" fill-opacity="1"></use><g><filter id="shadow12443031" x="435.56" y="158.64" width="118.02" height="103.63" filterUnits="userSpaceOnUse" primitiveUnits="userSpaceOnUse"><feFlood></feFlood><feComposite in2="SourceAlpha" operator="out"></feComposite><feGaussianBlur stdDeviation="1"></feGaussianBlur><feOffset dx="1" dy="1" result="afterOffset"></feOffset><feFlood flood-color="#5f5d5d" flood-opacity="0.8"></feFlood><feComposite in2="afterOffset" operator="in"></feComposite><feMorphology operator="dilate" radius="1"></feMorphology><feComposite in2="SourceAlpha" operator="in"></feComposite></filter><path d="M537.73 196.85C539.94 199.52 541.59 202.51 542.57 205.78C548.03 223.94 530.74 243.88 503.99 250.28C477.24 256.67 451.09 247.11 445.63 228.95C440.17 210.78 456.05 174.84 482.8 168.45C504.74 163.2 527.68 184.69 537.73 196.85Z" id="h3SwgPiDs" fill="white" fill-opacity="1" filter="url(#shadow12443031)"></path></g></g><g><g><filter id="shadow4151972" x="427.44" y="159.59" width="140.84" height="117.65" filterUnits="userSpaceOnUse" primitiveUnits="userSpaceOnUse"><feFlood></feFlood><feComposite in2="SourceAlpha" operator="in"></feComposite><feGaussianBlur stdDeviation="3"></feGaussianBlur><feOffset dx="4" dy="1" result="afterOffset"></feOffset><feFlood flood-color="#000000" flood-opacity="0.5"></feFlood><feComposite in2="afterOffset" operator="in"></feComposite><feMorphology operator="dilate" radius="1"></feMorphology><feComposite in2="SourceAlpha" operator="out"></feComposite></filter><path d="M457.04 230.52C450.83 215.3 463.18 197.29 484.6 190.34C506.03 183.38 528.46 190.09 534.67 205.31C540.88 220.53 528.53 238.54 507.11 245.49C485.69 252.45 463.25 245.74 457.04 230.52Z" id="d27Du0Uu7d" fill="white" fill-opacity="1" filter="url(#shadow4151972)"></path></g><use xlink:href="#b47VO4EB2" opacity="1" fill="#fcfcfc" fill-opacity="1"></use><g><filter id="shadow2713441" x="446.44" y="178.59" width="99.84" height="79.65" filterUnits="userSpaceOnUse" primitiveUnits="userSpaceOnUse"><feFlood></feFlood><feComposite in2="SourceAlpha" operator="out"></feComposite><feGaussianBlur stdDeviation="1"></feGaussianBlur><feOffset dx="1" dy="1" result="afterOffset"></feOffset><feFlood flood-color="#5f5d5d" flood-opacity="0.8"></feFlood><feComposite in2="afterOffset" operator="in"></feComposite><feMorphology operator="dilate" radius="1"></feMorphology><feComposite in2="SourceAlpha" operator="in"></feComposite></filter><path d="M457.04 230.52C450.83 215.3 463.18 197.29 484.6 190.34C506.03 183.38 528.46 190.09 534.67 205.31C540.88 220.53 528.53 238.54 507.11 245.49C485.69 252.45 463.25 245.74 457.04 230.52Z" id="h9omiqiWL" fill="white" fill-opacity="1" filter="url(#shadow2713441)"></path></g></g></g><g><g><use xlink:href="#h1nUqm9D2c" opacity="1" fill="#000000" fill-opacity="1"></use><g><use xlink:href="#h1nUqm9D2c" opacity="1" fill-opacity="0" stroke="#000000" stroke-width="1" stroke-opacity="0"></use></g></g><g><use xlink:href="#a7XdQObE0d" opacity="1" fill="#ffffff" fill-opacity="1"></use><g><use xlink:href="#a7XdQObE0d" opacity="1" fill-opacity="0" stroke="#000000" stroke-width="1" stroke-opacity="0"></use></g></g></g><g><g><g><filter id="shadow1941419" x="314.56" y="160.49" width="159.02" height="140.63" filterUnits="userSpaceOnUse" primitiveUnits="userSpaceOnUse"><feFlood></feFlood><feComposite in2="SourceAlpha" operator="in"></feComposite><feGaussianBlur stdDeviation="3"></feGaussianBlur><feOffset dx="4" dy="0" result="afterOffset"></feOffset><feFlood flood-color="#000000" flood-opacity="0.5"></feFlood><feComposite in2="afterOffset" operator="in"></feComposite><feMorphology operator="dilate" radius="1"></feMorphology><feComposite in2="SourceAlpha" operator="out"></feComposite></filter><path d="M435.73 217.7C437.94 220.37 439.59 223.36 440.57 226.63C446.03 244.79 428.74 264.73 401.99 271.13C375.24 277.52 349.09 267.96 343.63 249.8C338.17 231.63 354.05 195.69 380.8 189.3C402.74 184.05 425.68 205.54 435.73 217.7Z" id="dFFRVTrHn" fill="white" fill-opacity="1" filter="url(#shadow1941419)"></path></g><use xlink:href="#a1tNfc1tHY" opacity="1" fill="#0b0b0a" fill-opacity="1"></use></g><g><g><filter id="shadow15459566" x="326.44" y="181.44" width="137.84" height="117.65" filterUnits="userSpaceOnUse" primitiveUnits="userSpaceOnUse"><feFlood></feFlood><feComposite in2="SourceAlpha" operator="in"></feComposite><feGaussianBlur stdDeviation="3"></feGaussianBlur><feOffset dx="3" dy="3" result="afterOffset"></feOffset><feFlood flood-color="#534e4e" flood-opacity="0.5"></feFlood><feComposite in2="afterOffset" operator="in"></feComposite><feMorphology operator="dilate" radius="1"></feMorphology><feComposite in2="SourceAlpha" operator="out"></feComposite></filter><path d="M355.04 251.36C348.83 236.14 361.18 218.14 382.6 211.19C404.03 204.23 426.46 210.94 432.67 226.16C438.88 241.38 426.53 259.38 405.11 266.34C383.69 273.29 361.25 266.58 355.04 251.36Z" id="f1JKwuhjuH" fill="white" fill-opacity="1" filter="url(#shadow15459566)"></path></g><use xlink:href="#bssIK2h3Z" opacity="1" fill="#ffffff" fill-opacity="1"></use><g><filter id="shadow7709091" x="344.44" y="199.44" width="99.84" height="79.65" filterUnits="userSpaceOnUse" primitiveUnits="userSpaceOnUse"><feFlood></feFlood><feComposite in2="SourceAlpha" operator="out"></feComposite><feGaussianBlur stdDeviation="1"></feGaussianBlur><feOffset dx="1" dy="1" result="afterOffset"></feOffset><feFlood flood-color="#2c2a2a" flood-opacity="0.8"></feFlood><feComposite in2="afterOffset" operator="in"></feComposite><feMorphology operator="dilate" radius="1"></feMorphology><feComposite in2="SourceAlpha" operator="in"></feComposite></filter><path d="M355.04 251.36C348.83 236.14 361.18 218.14 382.6 211.19C404.03 204.23 426.46 210.94 432.67 226.16C438.88 241.38 426.53 259.38 405.11 266.34C383.69 273.29 361.25 266.58 355.04 251.36Z" id="hszmFCI2V" fill="white" fill-opacity="1" filter="url(#shadow7709091)"></path></g></g></g><g><g><g></g><use xlink:href="#bC1L7QNqh" opacity="1" fill="#000000" fill-opacity="1"></use><g><use xlink:href="#bC1L7QNqh" opacity="1" fill-opacity="0" stroke="#000000" stroke-width="1" stroke-opacity="0"></use></g></g><g><g></g><use xlink:href="#b2mUUAiWLx" opacity="1" fill="#ffffff" fill-opacity="1"></use><g><use xlink:href="#b2mUUAiWLx" opacity="1" fill-opacity="0" stroke="#000000" stroke-width="1" stroke-opacity="0"></use></g></g></g></g></g></svg>